<svg width="26" height="26" viewBox="0 0 26 26" fill="none" xmlns="http://www.w3.org/2000/svg">
<g clip-path="url(#clip0_1_417)">
<path d="M19.7141 7.37607C19.7141 7.31395 19.6346 7.28533 19.5908 7.32929L19.0434 7.87747C18.399 8.5156 17.7403 9.13935 17.1271 9.79668C16.2815 10.6843 15.4144 11.548 14.5568 12.4188C14.0993 12.8842 13.6657 13.3784 13.1771 13.8102C13.0831 13.8944 12.9723 13.9575 12.852 13.9953C12.7317 14.0331 12.6048 14.0448 12.4796 14.0296C12.3545 14.0144 12.234 13.9726 12.1263 13.9071C12.0185 13.8415 11.926 13.7537 11.8548 13.6495C11.7283 13.4681 11.6711 13.2472 11.6935 13.027C11.7159 12.8069 11.8165 12.6021 11.977 12.45C12.6261 11.8166 13.2418 11.1473 13.8765 10.4996C14.3556 10.0198 14.8347 9.53998 15.3281 9.06018C16.224 8.15815 17.1191 7.25372 18.0134 6.3469C18.0347 6.32532 18.0303 6.28894 18.0021 6.2776C17.9548 6.25853 17.9034 6.27253 17.8577 6.27253H7.09516C6.89034 6.25297 6.6845 6.29739 6.50589 6.39968C6.37187 6.48549 6.26235 6.60463 6.18804 6.74549C6.11373 6.88635 6.07716 7.04411 6.08191 7.20335C6.06993 8.78909 6.08191 10.3748 6.08191 11.9606C6.08191 12.0038 6.06035 12.0637 6.12503 12.0805C6.1897 12.0973 6.19449 12.0565 6.22563 12.0254C6.82927 11.404 7.42333 10.7827 8.04374 10.1685C8.45814 9.75109 8.88213 9.34327 9.29653 8.92824C9.71094 8.51321 10.0559 8.14135 10.4391 7.75271C10.5287 7.63544 10.6407 7.53725 10.7686 7.46392C10.8965 7.39059 11.0378 7.3436 11.1841 7.3257C11.4262 7.31988 11.6608 7.41018 11.8367 7.57692C12.0126 7.74365 12.1156 7.97328 12.1231 8.21572C12.1244 8.35106 12.0972 8.48517 12.0431 8.60921C11.989 8.73325 11.9093 8.84441 11.8093 8.93543C11.1051 9.65513 10.4176 10.3748 9.69896 11.0945C9.18634 11.5959 8.68571 12.1117 8.17788 12.6179C7.45926 13.3376 6.7622 14.0429 6.05795 14.7602C5.94777 14.873 5.89267 15.0337 5.76093 15.1369C4.98721 15.739 4.35962 16.4923 3.65777 17.1665C3.62361 17.1951 3.59812 17.2327 3.58416 17.2751C3.57019 17.3175 3.56831 17.363 3.57872 17.4064C3.62879 17.8116 3.54463 18.222 3.33918 18.5747C3.12914 18.9481 2.78744 19.2296 2.38102 19.3639C2.0743 19.4789 1.7395 19.4957 1.42286 19.4119C1.0174 19.3063 0.655907 19.0744 0.390443 18.7498C0.193537 18.5195 0.0649232 18.2386 0.0191565 17.9389C-0.0251254 17.6761 -0.0104848 17.4068 0.0620179 17.1503C0.134521 16.8939 0.263069 16.6569 0.438351 16.4563C0.693415 16.1501 1.05099 15.9471 1.44442 15.8854C1.66893 15.8326 1.90259 15.8326 2.12711 15.8854C2.19411 15.9031 2.26497 15.8995 2.32981 15.875C2.45823 15.8264 2.53679 15.6989 2.63269 15.6007C3.13792 15.083 3.65375 14.5732 4.16559 14.0693C4.20523 14.0324 4.23646 13.9874 4.25713 13.9373C4.2778 13.8872 4.28743 13.8332 4.28536 13.779C4.28536 11.5695 4.28536 9.35766 4.28536 7.14817C4.28626 6.75847 4.3721 6.37367 4.53688 6.02063C4.73729 5.56874 5.06219 5.18343 5.47348 4.90989C5.88976 4.6149 6.38641 4.45497 6.89634 4.45169H18.9212C19.1787 4.44179 19.4352 4.48761 19.6734 4.58603C19.7309 4.61242 19.7668 4.58602 19.8099 4.54283C20.198 4.1446 20.6028 3.76317 20.9813 3.35533C21.2424 3.07705 21.5131 2.80836 21.7885 2.54447C21.961 2.38133 21.9562 2.39333 21.7885 2.2326C21.658 2.12753 21.5368 2.01163 21.4261 1.88621C21.323 1.76946 21.2253 1.63546 21.2214 1.47977C21.2194 1.40145 21.235 1.32367 21.2669 1.25214C21.2988 1.18061 21.3463 1.11713 21.4059 1.06636C21.4655 1.01559 21.5357 0.978807 21.6113 0.958709C22.1095 0.790778 22.6197 0.663637 23.1204 0.500504C23.506 0.375755 23.8965 0.260604 24.2917 0.157447C24.4791 0.0811362 24.6756 0.0295219 24.8762 0.00390625C25.3146 0.00390625 25.4918 0.385358 25.4032 0.747609C25.3361 1.0115 25.2643 1.27539 25.1948 1.53688C25.1253 1.79837 25.0415 2.10064 24.9696 2.38612C24.8978 2.67161 24.8618 2.88992 24.7948 3.13942C24.7369 3.42514 24.6568 3.70588 24.5552 3.97907C24.5267 4.04722 24.4829 4.10785 24.4271 4.15625C24.3714 4.20464 24.3052 4.23948 24.2338 4.25805C24.1624 4.27663 24.0877 4.27844 24.0154 4.26334C23.9432 4.24824 23.8755 4.21663 23.8174 4.17099C23.6572 4.03371 23.506 3.88627 23.3647 3.72958C23.2761 3.64561 23.2258 3.62402 23.1252 3.72958C22.5095 4.35785 21.8871 4.97924 21.2667 5.60496C21.2378 5.63411 21.2027 5.65829 21.1807 5.69297C21.1697 5.71041 21.1622 5.72991 21.1589 5.75029C21.1555 5.77067 21.1563 5.79151 21.1612 5.81158C21.1709 5.85152 21.1969 5.88537 21.215 5.92228C21.4285 6.3582 21.5333 6.83975 21.5202 7.3257C21.5202 11.2337 21.5202 15.1417 21.5202 19.0497C21.5409 19.6867 21.338 20.3109 20.9468 20.8137C20.5555 21.3164 20.0007 21.6659 19.3788 21.8013C19.1013 21.8563 18.8179 21.8756 18.5356 21.8589C16.1258 21.8589 13.7152 21.8589 11.3039 21.8589C11.2551 21.8552 11.2061 21.8621 11.1602 21.879C11.1143 21.896 11.0726 21.9227 11.038 21.9573C10.6627 22.3379 10.2842 22.7154 9.90257 23.0896C9.87828 23.1147 9.86022 23.1451 9.84981 23.1784C9.83941 23.2118 9.83697 23.2471 9.84268 23.2815C9.86543 23.488 9.86543 23.6964 9.84268 23.9029C9.80601 24.2041 9.69087 24.4903 9.50881 24.7329C9.32676 24.9754 9.08419 25.1657 8.80548 25.2847C8.51228 25.426 8.18309 25.4745 7.86169 25.4239C7.62072 25.394 7.3885 25.3146 7.17953 25.1908C6.97057 25.067 6.78935 24.9013 6.64722 24.7041C6.44361 24.4059 6.32593 24.0573 6.30708 23.6966C6.28892 23.3599 6.37238 23.0255 6.54662 22.737C6.66726 22.5166 6.83282 22.3241 7.03256 22.172C7.23229 22.02 7.46174 21.9116 7.70599 21.8541C7.92901 21.8193 8.15608 21.8193 8.3791 21.8541C8.45103 21.861 8.52355 21.8502 8.59036 21.8226C8.65716 21.795 8.71621 21.7515 8.76236 21.6958C9.50972 20.9281 10.2667 20.17 11.0212 19.4071C11.5817 18.841 12.1407 18.274 12.698 17.7062C13.3591 17.0377 14.0227 16.3708 14.6886 15.7054C15.2156 15.1753 15.7521 14.6523 16.2743 14.1173C16.3774 14.0107 16.5057 13.932 16.6473 13.8884C16.789 13.8448 16.9393 13.8378 17.0843 13.8679C17.2294 13.8981 17.3645 13.9645 17.4771 14.0609C17.5897 14.1573 17.6761 14.2807 17.7283 14.4196C17.8079 14.5864 17.8314 14.7745 17.7951 14.9558C17.7588 15.137 17.6648 15.3016 17.5271 15.4248C16.6049 16.3532 15.6779 17.2768 14.7556 18.2052C14.2909 18.685 13.8382 19.1504 13.3735 19.6158C13.2761 19.6978 13.1848 19.7868 13.1004 19.8821C13.0717 19.9181 13.0142 19.9493 13.031 19.9973C13.044 20.0345 13.0945 20.0299 13.1388 20.0293C13.1627 20.0289 13.1867 20.0309 13.2106 20.0309C15.0694 20.0309 16.9283 20.0309 18.7871 20.0309C18.9866 20.0307 19.181 19.9682 19.3433 19.8521C19.5056 19.736 19.6277 19.5721 19.6926 19.3831C19.7144 19.3151 19.7218 19.2431 19.7141 19.172C19.7141 15.2408 19.7141 11.3088 19.7141 7.37607ZM8.118 22.9769C7.95359 22.9754 7.79493 23.0373 7.67494 23.1499C7.55496 23.2625 7.48286 23.417 7.47363 23.5814C7.46633 23.6667 7.47643 23.7525 7.5033 23.8338C7.53018 23.915 7.57328 23.9899 7.62997 24.054C7.68667 24.118 7.75578 24.1698 7.8331 24.2062C7.91042 24.2427 7.99433 24.263 8.07973 24.2659C8.16513 24.2688 8.25024 24.2543 8.32987 24.2233C8.4095 24.1922 8.48199 24.1453 8.54293 24.0853C8.60387 24.0253 8.65199 23.9535 8.68436 23.8743C8.71673 23.7951 8.73267 23.7102 8.73122 23.6246C8.73509 23.4574 8.67279 23.2955 8.55791 23.1741C8.44302 23.0528 8.28489 22.9819 8.118 22.9769ZM2.35936 17.8948C2.41697 17.7432 2.42654 17.5665 2.36202 17.4178C2.26069 17.1841 1.98394 17.0116 1.7678 17.0225C1.60726 17.0324 1.45676 17.1041 1.34782 17.2226C1.23887 17.3411 1.17992 17.4972 1.18332 17.6582C1.17821 17.7402 1.19035 17.8222 1.21895 17.8991C1.24756 17.976 1.29199 18.046 1.34936 18.1046C1.40674 18.1632 1.47577 18.2091 1.55198 18.2392C1.6282 18.2694 1.70989 18.2831 1.79175 18.2796C1.87315 18.281 1.95397 18.2657 2.02923 18.2346C2.1045 18.2035 2.17262 18.1573 2.22939 18.0989C2.28616 18.0405 2.33039 17.971 2.35936 17.8948Z" fill="url(#paint0_linear_1_417)"/>
<path d="M10.985 15.4943C10.99 15.6115 10.97 15.7285 10.9262 15.8373C10.8824 15.9461 10.8158 16.0443 10.7311 16.1252C10.252 16.6194 9.7729 17.1016 9.27945 17.591L7.78472 19.1144C7.6985 19.2169 7.59256 19.3009 7.47321 19.3615C7.35386 19.4221 7.22355 19.458 7.09005 19.4671C6.95742 19.4693 6.82593 19.4422 6.70493 19.3878C6.58393 19.3334 6.47638 19.2529 6.38994 19.1521C6.3035 19.0514 6.24029 18.9328 6.2048 18.8048C6.16931 18.6767 6.16241 18.5425 6.18459 18.4115C6.21992 18.198 6.32628 18.0027 6.48641 17.8573C7.12519 17.2176 7.76396 16.5779 8.40273 15.9381C8.73569 15.5999 9.06865 15.2616 9.38964 14.9113C9.50504 14.7851 9.65208 14.692 9.81551 14.6418C9.97893 14.5916 10.1528 14.5861 10.3191 14.6259C10.5094 14.6782 10.6775 14.7913 10.7977 14.9481C10.9179 15.1048 10.9836 15.2966 10.985 15.4943Z" fill="#326EEF"/>
</g>
<defs>
<linearGradient id="paint0_linear_1_417" x1="25.4254" y1="0.00390625" x2="2.68152" y2="19.1319" gradientUnits="userSpaceOnUse">
<stop stop-color="#03D6FA"/>
<stop offset="1" stop-color="#3762EE"/>
</linearGradient>
<clipPath id="clip0_1_417">
<rect width="25.4367" height="25.4367" fill="white"/>
</clipPath>
</defs>
</svg>
