<svg width="146" height="26" viewBox="0 0 146 26" fill="none" xmlns="http://www.w3.org/2000/svg">
<g clip-path="url(#clip0_1_416)">
<path d="M19.7141 7.37607C19.7141 7.31395 19.6346 7.28533 19.5908 7.32929L19.0434 7.87747C18.399 8.5156 17.7403 9.13935 17.1271 9.79668C16.2815 10.6843 15.4144 11.548 14.5568 12.4188C14.0993 12.8842 13.6657 13.3784 13.1771 13.8102C13.0831 13.8944 12.9723 13.9575 12.852 13.9953C12.7317 14.0331 12.6048 14.0448 12.4796 14.0296C12.3545 14.0144 12.234 13.9726 12.1263 13.9071C12.0185 13.8415 11.926 13.7537 11.8548 13.6495C11.7283 13.4681 11.6711 13.2472 11.6935 13.027C11.7159 12.8069 11.8165 12.6021 11.977 12.45C12.6261 11.8166 13.2418 11.1473 13.8765 10.4996C14.3556 10.0198 14.8347 9.53998 15.3281 9.06018C16.224 8.15815 17.1191 7.25372 18.0134 6.3469C18.0347 6.32532 18.0303 6.28894 18.0021 6.2776C17.9548 6.25853 17.9034 6.27253 17.8577 6.27253H7.09516C6.89034 6.25297 6.6845 6.29739 6.50589 6.39968C6.37187 6.48549 6.26235 6.60463 6.18804 6.74549C6.11373 6.88635 6.07716 7.04411 6.08191 7.20335C6.06993 8.78909 6.08191 10.3748 6.08191 11.9606C6.08191 12.0038 6.06035 12.0637 6.12503 12.0805C6.1897 12.0973 6.19449 12.0565 6.22563 12.0254C6.82927 11.404 7.42333 10.7827 8.04374 10.1685C8.45814 9.75109 8.88213 9.34327 9.29653 8.92824C9.71094 8.51321 10.0559 8.14135 10.4391 7.75271C10.5287 7.63544 10.6407 7.53725 10.7686 7.46392C10.8965 7.39059 11.0378 7.3436 11.1841 7.3257C11.4262 7.31988 11.6608 7.41018 11.8367 7.57692C12.0126 7.74365 12.1156 7.97328 12.1231 8.21572C12.1244 8.35106 12.0972 8.48517 12.0431 8.60921C11.989 8.73325 11.9093 8.84441 11.8093 8.93543C11.1051 9.65513 10.4176 10.3748 9.69896 11.0945C9.18634 11.5959 8.68571 12.1117 8.17788 12.6179C7.45926 13.3376 6.7622 14.0429 6.05795 14.7602C5.94777 14.873 5.89267 15.0337 5.76093 15.1369C4.98721 15.739 4.35962 16.4923 3.65777 17.1665C3.62361 17.1951 3.59812 17.2327 3.58416 17.2751C3.57019 17.3175 3.56831 17.363 3.57872 17.4064C3.62879 17.8116 3.54463 18.222 3.33918 18.5747C3.12914 18.9481 2.78744 19.2296 2.38102 19.3639C2.0743 19.4789 1.7395 19.4957 1.42286 19.4119C1.0174 19.3063 0.655907 19.0744 0.390443 18.7498C0.193537 18.5195 0.0649232 18.2386 0.0191565 17.9389C-0.0251254 17.6761 -0.0104848 17.4068 0.0620179 17.1503C0.134521 16.8939 0.263069 16.6569 0.438351 16.4563C0.693415 16.1501 1.05099 15.9471 1.44442 15.8854C1.66893 15.8326 1.90259 15.8326 2.12711 15.8854C2.19411 15.9031 2.26497 15.8995 2.32981 15.875C2.45823 15.8264 2.53679 15.6989 2.63269 15.6007C3.13792 15.083 3.65375 14.5732 4.16559 14.0693C4.20523 14.0324 4.23646 13.9874 4.25713 13.9373C4.2778 13.8872 4.28743 13.8332 4.28536 13.779C4.28536 11.5695 4.28536 9.35766 4.28536 7.14817C4.28626 6.75847 4.3721 6.37367 4.53688 6.02063C4.73729 5.56874 5.06219 5.18343 5.47348 4.90989C5.88976 4.6149 6.38641 4.45497 6.89634 4.45169H18.9212C19.1787 4.44179 19.4352 4.48761 19.6734 4.58603C19.7309 4.61242 19.7668 4.58602 19.8099 4.54283C20.198 4.1446 20.6028 3.76317 20.9813 3.35533C21.2424 3.07705 21.5131 2.80836 21.7885 2.54447C21.961 2.38133 21.9562 2.39333 21.7885 2.2326C21.658 2.12753 21.5368 2.01163 21.4261 1.88621C21.323 1.76946 21.2253 1.63546 21.2214 1.47977C21.2194 1.40145 21.235 1.32367 21.2669 1.25214C21.2988 1.18061 21.3463 1.11713 21.4059 1.06636C21.4655 1.01559 21.5357 0.978807 21.6113 0.958709C22.1095 0.790778 22.6197 0.663637 23.1204 0.500504C23.506 0.375755 23.8965 0.260604 24.2917 0.157447C24.4791 0.0811362 24.6756 0.0295219 24.8762 0.00390625C25.3146 0.00390625 25.4918 0.385358 25.4032 0.747609C25.3361 1.0115 25.2643 1.27539 25.1948 1.53688C25.1253 1.79837 25.0415 2.10064 24.9696 2.38612C24.8978 2.67161 24.8618 2.88992 24.7948 3.13942C24.7369 3.42514 24.6568 3.70588 24.5552 3.97907C24.5267 4.04722 24.4829 4.10785 24.4271 4.15625C24.3714 4.20464 24.3052 4.23948 24.2338 4.25805C24.1624 4.27663 24.0877 4.27844 24.0154 4.26334C23.9432 4.24824 23.8755 4.21663 23.8174 4.17099C23.6572 4.03371 23.506 3.88627 23.3647 3.72958C23.2761 3.64561 23.2258 3.62402 23.1252 3.72958C22.5095 4.35785 21.8871 4.97924 21.2667 5.60496C21.2378 5.63411 21.2027 5.65829 21.1807 5.69297C21.1697 5.71041 21.1622 5.72991 21.1589 5.75029C21.1555 5.77067 21.1563 5.79151 21.1612 5.81158C21.1709 5.85152 21.1969 5.88537 21.215 5.92228C21.4285 6.3582 21.5333 6.83975 21.5202 7.3257C21.5202 11.2337 21.5202 15.1417 21.5202 19.0497C21.5409 19.6867 21.338 20.3109 20.9468 20.8137C20.5555 21.3164 20.0007 21.6659 19.3788 21.8013C19.1013 21.8563 18.8179 21.8756 18.5356 21.8589C16.1258 21.8589 13.7152 21.8589 11.3039 21.8589C11.2551 21.8552 11.2061 21.8621 11.1602 21.879C11.1143 21.896 11.0726 21.9227 11.038 21.9573C10.6627 22.3379 10.2842 22.7154 9.90257 23.0896C9.87828 23.1147 9.86022 23.1451 9.84981 23.1784C9.83941 23.2118 9.83697 23.2471 9.84268 23.2815C9.86543 23.488 9.86543 23.6964 9.84268 23.9029C9.80601 24.2041 9.69087 24.4903 9.50881 24.7329C9.32676 24.9754 9.08419 25.1657 8.80548 25.2847C8.51228 25.426 8.18309 25.4745 7.86169 25.4239C7.62072 25.394 7.3885 25.3146 7.17953 25.1908C6.97057 25.067 6.78935 24.9013 6.64722 24.7041C6.44361 24.4059 6.32593 24.0573 6.30708 23.6966C6.28892 23.3599 6.37238 23.0255 6.54662 22.737C6.66726 22.5166 6.83282 22.3241 7.03256 22.172C7.23229 22.02 7.46174 21.9116 7.70599 21.8541C7.92901 21.8193 8.15608 21.8193 8.3791 21.8541C8.45103 21.861 8.52355 21.8502 8.59036 21.8226C8.65716 21.795 8.71621 21.7515 8.76236 21.6958C9.50972 20.9281 10.2667 20.17 11.0212 19.4071C11.5817 18.841 12.1407 18.274 12.698 17.7062C13.3591 17.0377 14.0227 16.3708 14.6886 15.7054C15.2156 15.1753 15.7521 14.6523 16.2743 14.1173C16.3774 14.0107 16.5057 13.932 16.6473 13.8884C16.789 13.8448 16.9393 13.8378 17.0843 13.8679C17.2294 13.8981 17.3645 13.9645 17.4771 14.0609C17.5897 14.1573 17.6761 14.2807 17.7283 14.4196C17.8079 14.5864 17.8314 14.7745 17.7951 14.9558C17.7588 15.137 17.6648 15.3016 17.5271 15.4248C16.6049 16.3532 15.6779 17.2768 14.7556 18.2052C14.2909 18.685 13.8382 19.1504 13.3735 19.6158C13.2761 19.6978 13.1848 19.7868 13.1004 19.8821C13.0717 19.9181 13.0142 19.9493 13.031 19.9973C13.044 20.0345 13.0945 20.0299 13.1388 20.0293C13.1627 20.0289 13.1867 20.0309 13.2106 20.0309C15.0694 20.0309 16.9283 20.0309 18.7871 20.0309C18.9866 20.0307 19.181 19.9682 19.3433 19.8521C19.5056 19.736 19.6277 19.5721 19.6926 19.3831C19.7144 19.3151 19.7218 19.2431 19.7141 19.172C19.7141 15.2408 19.7141 11.3088 19.7141 7.37607ZM8.118 22.9769C7.95359 22.9754 7.79493 23.0373 7.67494 23.1499C7.55496 23.2625 7.48286 23.417 7.47363 23.5814C7.46633 23.6667 7.47643 23.7525 7.5033 23.8338C7.53018 23.915 7.57328 23.9899 7.62997 24.054C7.68667 24.118 7.75578 24.1698 7.8331 24.2062C7.91042 24.2427 7.99433 24.263 8.07973 24.2659C8.16513 24.2688 8.25024 24.2543 8.32987 24.2233C8.4095 24.1922 8.48199 24.1453 8.54293 24.0853C8.60387 24.0253 8.65199 23.9535 8.68436 23.8743C8.71673 23.7951 8.73267 23.7102 8.73122 23.6246C8.73509 23.4574 8.67279 23.2955 8.55791 23.1741C8.44302 23.0528 8.28489 22.9819 8.118 22.9769ZM2.35936 17.8948C2.41697 17.7432 2.42654 17.5665 2.36202 17.4178C2.26069 17.1841 1.98394 17.0116 1.7678 17.0225C1.60726 17.0324 1.45676 17.1041 1.34782 17.2226C1.23887 17.3411 1.17992 17.4972 1.18332 17.6582C1.17821 17.7402 1.19035 17.8222 1.21895 17.8991C1.24756 17.976 1.29199 18.046 1.34936 18.1046C1.40674 18.1632 1.47577 18.2091 1.55198 18.2392C1.6282 18.2694 1.70989 18.2831 1.79175 18.2796C1.87315 18.281 1.95397 18.2657 2.02923 18.2346C2.1045 18.2035 2.17262 18.1573 2.22939 18.0989C2.28616 18.0405 2.33039 17.971 2.35936 17.8948Z" fill="url(#paint0_linear_1_416)"/>
<path d="M10.985 15.4943C10.99 15.6115 10.97 15.7285 10.9262 15.8373C10.8824 15.9461 10.8158 16.0443 10.7311 16.1252C10.252 16.6194 9.7729 17.1016 9.27945 17.591L7.78472 19.1144C7.6985 19.2169 7.59256 19.3009 7.47321 19.3615C7.35386 19.4221 7.22355 19.458 7.09005 19.4671C6.95742 19.4693 6.82593 19.4422 6.70493 19.3878C6.58393 19.3334 6.47638 19.2529 6.38994 19.1521C6.3035 19.0514 6.24029 18.9328 6.2048 18.8048C6.16931 18.6767 6.16241 18.5425 6.18459 18.4115C6.21992 18.198 6.32628 18.0027 6.48641 17.8573C7.12519 17.2176 7.76396 16.5779 8.40273 15.9381C8.73569 15.5999 9.06865 15.2616 9.38964 14.9113C9.50504 14.7851 9.65208 14.692 9.81551 14.6418C9.97893 14.5916 10.1528 14.5861 10.3191 14.6259C10.5094 14.6782 10.6775 14.7913 10.7977 14.9481C10.9179 15.1048 10.9836 15.2966 10.985 15.4943Z" fill="#326EEF"/>
</g>
<path d="M36.6685 6.20194V8.42928H32.4536V11.2563H36.4971V13.4836H32.4536V18.1953H30.055V6.20194H36.6685ZM43.8147 9.35449V11.4619H42.7181C42.1128 11.4619 41.5988 11.6675 41.1761 12.0787C40.7535 12.4899 40.5422 13.021 40.5422 13.6721V18.1953H38.2635V9.47442H40.4565V10.451C41.1761 9.72 42.0614 9.35449 43.1122 9.35449H43.8147ZM49.1188 18.4009C48.285 18.4009 47.5026 18.2124 46.7715 17.8355C46.0519 17.4472 45.4751 16.9103 45.0411 16.225C44.607 15.5282 44.39 14.7344 44.39 13.8434C44.39 12.9525 44.607 12.1587 45.0411 11.4619C45.4751 10.7651 46.0519 10.2283 46.7715 9.85135C47.5026 9.463 48.285 9.26882 49.1188 9.26882C49.9526 9.26882 50.7293 9.463 51.4489 9.85135C52.18 10.2283 52.7625 10.7651 53.1966 11.4619C53.6306 12.1587 53.8476 12.9525 53.8476 13.8434C53.8476 14.7344 53.6306 15.5282 53.1966 16.225C52.7625 16.9103 52.18 17.4472 51.4489 17.8355C50.7293 18.2124 49.9526 18.4009 49.1188 18.4009ZM49.1188 16.2935C49.8156 16.2935 50.3981 16.0594 50.8664 15.591C51.3347 15.1227 51.5689 14.5402 51.5689 13.8434C51.5689 13.1353 51.3347 12.547 50.8664 12.0787C50.3981 11.6104 49.8156 11.3762 49.1188 11.3762C48.422 11.3762 47.8395 11.6104 47.3712 12.0787C46.9029 12.547 46.6687 13.1353 46.6687 13.8434C46.6687 14.5402 46.9029 15.1227 47.3712 15.591C47.8395 16.0594 48.422 16.2935 49.1188 16.2935ZM60.3611 9.26882C61.0464 9.26882 61.6575 9.43444 62.1944 9.76569C62.7312 10.0855 63.1481 10.531 63.4451 11.1021C63.7535 11.6732 63.9077 12.3129 63.9077 13.021V18.1953H61.629V13.4494C61.629 12.8211 61.4634 12.3186 61.1321 11.9416C60.8123 11.5647 60.3668 11.3762 59.7957 11.3762C59.236 11.3762 58.7734 11.5704 58.4079 11.9588C58.0424 12.3357 57.8596 12.8326 57.8596 13.4494V18.1953H55.5809V9.47442H57.774V10.3654C58.4936 9.63433 59.356 9.26882 60.3611 9.26882ZM70.9568 11.5818H68.8665V14.7344C68.8665 15.157 68.9864 15.4882 69.2263 15.7281C69.4662 15.968 69.7974 16.0879 70.22 16.0879H70.9568V18.1953H69.6375C68.6895 18.1953 67.9413 17.9269 67.393 17.39C66.8562 16.8418 66.5878 16.0993 66.5878 15.1627V11.5818H65.1657V9.47442H66.5878V7.16141H68.8665V9.47442H70.9568V11.5818ZM76.6394 9.26882C77.439 9.26882 78.1871 9.463 78.8839 9.85135C79.5921 10.2397 80.1518 10.7708 80.563 11.4448C80.9856 12.1187 81.1969 12.8725 81.1969 13.7064C81.1969 14.0148 81.1626 14.3403 81.0941 14.683H74.4121C74.5377 15.2769 74.7947 15.7395 75.1831 16.0708C75.5715 16.3906 76.0626 16.5505 76.6566 16.5505C77.1135 16.5505 77.4961 16.4706 77.8045 16.3106C78.1243 16.1393 78.387 15.888 78.5926 15.5568H80.8885C80.5573 16.3906 80.0261 17.0759 79.2951 17.6128C78.5641 18.1382 77.6789 18.4009 76.6394 18.4009C75.8399 18.4009 75.086 18.2124 74.3778 17.8355C73.6696 17.4472 73.1042 16.9103 72.6816 16.225C72.259 15.5282 72.0477 14.7344 72.0477 13.8434C72.0477 12.9525 72.259 12.1587 72.6816 11.4619C73.1042 10.7651 73.6639 10.2283 74.3607 9.85135C75.0689 9.463 75.8285 9.26882 76.6394 9.26882ZM76.6394 11.1192C76.0683 11.1192 75.5886 11.2791 75.2002 11.599C74.8233 11.9074 74.5663 12.3471 74.4292 12.9182H78.8668C78.7526 12.3814 78.507 11.9473 78.13 11.6161C77.7645 11.2848 77.2677 11.1192 76.6394 11.1192ZM87.7009 9.26882C88.3862 9.26882 88.9973 9.43444 89.5342 9.76569C90.071 10.0855 90.4879 10.531 90.7849 11.1021C91.0933 11.6732 91.2475 12.3129 91.2475 13.021V18.1953H88.9688V13.4494C88.9688 12.8211 88.8032 12.3186 88.4719 11.9416C88.1521 11.5647 87.7066 11.3762 87.1355 11.3762C86.5758 11.3762 86.1132 11.5704 85.7477 11.9588C85.3822 12.3357 85.1994 12.8326 85.1994 13.4494V18.1953H82.9207V9.47442H85.1138V10.3654C85.8334 9.63433 86.6957 9.26882 87.7009 9.26882ZM99.9888 5.85928H102.267V18.1953H100.074V17.3044C99.7203 17.6813 99.3148 17.9612 98.858 18.1439C98.4011 18.3152 97.8699 18.4009 97.2645 18.4009C96.5221 18.4009 95.8139 18.2067 95.14 17.8184C94.4661 17.43 93.9235 16.8875 93.5123 16.1907C93.1011 15.4939 92.8955 14.7058 92.8955 13.8263C92.8955 12.9582 93.1011 12.1758 93.5123 11.479C93.9235 10.7823 94.4661 10.2397 95.14 9.85135C95.8139 9.463 96.5221 9.26882 97.2645 9.26882C97.8585 9.26882 98.3725 9.35449 98.8066 9.52582C99.252 9.68573 99.6461 9.93702 99.9888 10.2797V5.85928ZM97.6243 16.2935C98.3211 16.2935 98.9036 16.0594 99.372 15.591C99.8403 15.1227 100.074 14.5345 100.074 13.8263C100.074 13.1295 99.8403 12.547 99.372 12.0787C98.9036 11.6104 98.3211 11.3762 97.6243 11.3762C96.9276 11.3762 96.3451 11.6104 95.8767 12.0787C95.4084 12.547 95.1743 13.1295 95.1743 13.8263C95.1743 14.5345 95.4084 15.1227 95.8767 15.591C96.3451 16.0594 96.9276 16.2935 97.6243 16.2935ZM113.798 18.1953H111.399V8.42928H108.401V6.20194H116.779V8.42928H113.798V18.1953ZM123.499 9.47442H125.692V18.1953H123.499V17.3044C123.145 17.6813 122.739 17.9612 122.282 18.1439C121.826 18.3152 121.294 18.4009 120.689 18.4009C119.947 18.4009 119.238 18.2067 118.565 17.8184C117.891 17.43 117.348 16.8875 116.937 16.1907C116.526 15.4939 116.32 14.7115 116.32 13.8434C116.32 12.9639 116.526 12.1758 116.937 11.479C117.348 10.7823 117.891 10.2397 118.565 9.85135C119.238 9.463 119.947 9.26882 120.689 9.26882C121.294 9.26882 121.826 9.3602 122.282 9.54295C122.739 9.71429 123.145 9.98842 123.499 10.3654V9.47442ZM121.049 16.2935C121.746 16.2935 122.328 16.0594 122.796 15.591C123.265 15.1227 123.499 14.5402 123.499 13.8434C123.499 13.1353 123.265 12.547 122.796 12.0787C122.328 11.6104 121.746 11.3762 121.049 11.3762C120.352 11.3762 119.77 11.6104 119.301 12.0787C118.833 12.547 118.599 13.1353 118.599 13.8434C118.599 14.5402 118.833 15.1227 119.301 15.591C119.77 16.0594 120.352 16.2935 121.049 16.2935ZM131.439 18.4009C130.697 18.4009 130.04 18.2753 129.469 18.024C128.898 17.7727 128.452 17.4243 128.132 16.9788C127.813 16.5334 127.636 16.0308 127.601 15.4711H129.863C129.897 15.7567 130.057 16.0022 130.343 16.2078C130.628 16.4134 130.994 16.5162 131.439 16.5162C131.85 16.5162 132.17 16.4534 132.399 16.3278C132.639 16.1907 132.758 15.9851 132.758 15.711C132.758 15.4368 132.621 15.2369 132.347 15.1113C132.073 14.9742 131.639 14.8372 131.045 14.7001C130.383 14.5402 129.834 14.3746 129.4 14.2032C128.978 14.0319 128.612 13.7578 128.304 13.3808C127.995 13.0039 127.841 12.4899 127.841 11.8388C127.841 11.3591 127.99 10.925 128.287 10.5367C128.595 10.1369 129.012 9.82851 129.537 9.61149C130.063 9.38304 130.657 9.26882 131.319 9.26882C131.936 9.26882 132.507 9.39446 133.033 9.64575C133.558 9.88562 133.981 10.2226 134.3 10.6566C134.632 11.0792 134.809 11.559 134.832 12.0958H132.604C132.581 11.8217 132.444 11.599 132.193 11.4276C131.953 11.2449 131.633 11.1535 131.234 11.1535C130.891 11.1535 130.617 11.2106 130.411 11.3248C130.217 11.439 130.12 11.599 130.12 11.8046C130.12 12.0787 130.257 12.2843 130.531 12.4214C130.817 12.5584 131.268 12.6955 131.885 12.8326C132.536 12.9925 133.067 13.1581 133.478 13.3294C133.901 13.4893 134.266 13.7521 134.575 14.1176C134.883 14.4717 135.037 14.9514 135.037 15.5568C135.037 16.4477 134.706 17.1445 134.043 17.647C133.381 18.1496 132.513 18.4009 131.439 18.4009ZM141.435 13.7064L145.479 18.1953H142.737L139.379 14.3917V18.1953H137.1V5.85928H139.379V13.141L142.566 9.47442H145.204L141.435 13.7064Z" fill="#00002B"/>
<defs>
<linearGradient id="paint0_linear_1_416" x1="25.4254" y1="0.00390625" x2="2.68152" y2="19.1319" gradientUnits="userSpaceOnUse">
<stop stop-color="#03D6FA"/>
<stop offset="1" stop-color="#3762EE"/>
</linearGradient>
<clipPath id="clip0_1_416">
<rect width="25.4367" height="25.4367" fill="white"/>
</clipPath>
</defs>
</svg>
