<svg width="18" height="18" viewBox="0 0 18 18" fill="none" xmlns="http://www.w3.org/2000/svg">
<path d="M2.25 8.25C2.25 5.42157 2.25 4.00736 3.12868 3.12868C4.00736 2.25 5.42157 2.25 8.25 2.25H9.75C12.5784 2.25 13.9927 2.25 14.8713 3.12868C15.75 4.00736 15.75 5.42157 15.75 8.25V9.75C15.75 12.5784 15.75 13.9927 14.8713 14.8713C13.9927 15.75 12.5784 15.75 9.75 15.75H8.25C5.42157 15.75 4.00736 15.75 3.12868 14.8713C2.25 13.9927 2.25 12.5784 2.25 9.75V8.25Z" stroke="#5E5873" stroke-width="1.125" stroke-linecap="round" stroke-linejoin="round"/>
<path d="M11.25 2.25V15.75" stroke="#5E5873" stroke-width="1.125" stroke-linecap="round" stroke-linejoin="round"/>
<path d="M6 6.75L6.83114 7.40901C7.77705 8.15903 8.25 8.53403 8.25 9C8.25 9.46597 7.77705 9.84097 6.83114 10.591L6 11.25" stroke="#5E5873" stroke-width="1.125" stroke-linecap="round" stroke-linejoin="round"/>
</svg>
